# xmcd
#
# Track frame offsets:
#	150
#	7650
#	12420
#	31016
#	48928
#	67353
#	85608
#	104374
#	123651
#	141564
#	147359
#	173124
#	188987
#	206047
#	222082
#	237776
#	259784
#	279060
#	295778
#	312496
#	319657
#
# Disc length: 4355 seconds
#
# Revision: 1
# Processed by: cddbd v1.5.1PL0 Copyright (c) Steve Scherf et al.
# Submitted via: EasyCDDAExtractor 6.5.0.1
#
DISCID=31110115
DTITLE=Jim Jones - On My Way To Church
DYEAR=1900
DGENRE=
TTITLE0=On My Way To Church
TTITLE1=Capo Status 1st Take C4
TTITLE2=Only One Way
TTITLE3=This Is Jim Jones
TTITLE4=Let's Ride
TTITLE5=Certified Gangstaz
TTITLE6=Jamacian Joint
TTITLE7=End Of The Road
TTITLE8=Shotgun Fire
TTITLE9=Capo Status 2nd Take C4
TTITLE10=Lovely Daze_Memory Lane
TTITLE11=Spanish Fly
TTITLE12=Livin' Life As A Rider
TTITLE13=Twin Towers
TTITLE14=When Thugs Die
TTITLE15=This Is Gangsta
TTITLE16=Crunk Muzik
TTITLE17=Bend-n-Stretch
TTITLE18=Talking To The World
TTITLE19=Capo Status Final Take C4
TTITLE20=On My Way To Church (outro)
EXTD=
EXTT0=
EXTT1=
EXTT2=
EXTT3=
EXTT4=
EXTT5=
EXTT6=
EXTT7=
EXTT8=
EXTT9=
EXTT10=
EXTT11=
EXTT12=
EXTT13=
EXTT14=
EXTT15=
EXTT16=
EXTT17=
EXTT18=
EXTT19=
EXTT20=
PLAYORDER=
